<svg version="1.1" id="el_lpF5tAZVg" xmlns="http://www.w3.org/2000/svg" xmlns:xlink="http://www.w3.org/1999/xlink" viewBox="-12 -36 70 120" style="enable-background:new 0 0 70 120;" xml:space="preserve"><style>@-webkit-keyframes kf_el_MTT8S1XrvQ_an_Y8TOwbXQk{
10%{-webkit-transform: translate(22.417693257331848px, 22.44999885559082px) rotate(0deg) translate(-22.417693257331848px, -22.44999885559082px);transform: translate(22.417693257331848px, 22.44999885559082px) rotate(0deg) translate(-22.417693257331848px, -22.44999885559082px);}
56.67%{-webkit-transform: translate(22.417693257331848px, 22.44999885559082px) rotate(360deg) translate(-22.417693257331848px, -22.44999885559082px);transform: translate(22.417693257331848px, 22.44999885559082px) rotate(360deg) translate(-22.417693257331848px, -22.44999885559082px);}
0%{-webkit-transform: translate(22.417693257331848px, 22.44999885559082px) rotate(0deg) translate(-22.417693257331848px, -22.44999885559082px);transform: translate(22.417693257331848px, 22.44999885559082px) rotate(0deg) translate(-22.417693257331848px, -22.44999885559082px);}
100%{-webkit-transform: translate(22.417693257331848px, 22.44999885559082px) rotate(360deg) translate(-22.417693257331848px, -22.44999885559082px);transform: translate(22.417693257331848px, 22.44999885559082px) rotate(360deg) translate(-22.417693257331848px, -22.44999885559082px);}}
@keyframes kf_el_MTT8S1XrvQ_an_Y8TOwbXQk{
10%{-webkit-transform: translate(22.417693257331848px, 22.44999885559082px) rotate(0deg) translate(-22.417693257331848px, -22.44999885559082px);transform: translate(22.417693257331848px, 22.44999885559082px) rotate(0deg) translate(-22.417693257331848px, -22.44999885559082px);}
56.67%{-webkit-transform: translate(22.417693257331848px, 22.44999885559082px) rotate(360deg) translate(-22.417693257331848px, -22.44999885559082px);transform: translate(22.417693257331848px, 22.44999885559082px) rotate(360deg) translate(-22.417693257331848px, -22.44999885559082px);}
0%{-webkit-transform: translate(22.417693257331848px, 22.44999885559082px) rotate(0deg) translate(-22.417693257331848px, -22.44999885559082px);transform: translate(22.417693257331848px, 22.44999885559082px) rotate(0deg) translate(-22.417693257331848px, -22.44999885559082px);}
100%{-webkit-transform: translate(22.417693257331848px, 22.44999885559082px) rotate(360deg) translate(-22.417693257331848px, -22.44999885559082px);transform: translate(22.417693257331848px, 22.44999885559082px) rotate(360deg) translate(-22.417693257331848px, -22.44999885559082px);}}
@-webkit-keyframes kf_el_MTT8S1XrvQ_an_cg34sAbmT{
0%{-webkit-transform: translate(22.417693257331848px, 22.44999885559082px) translate(-22.417693257331848px, -22.44999885559082px) translate(0px, 35px);transform: translate(22.417693257331848px, 22.44999885559082px) translate(-22.417693257331848px, -22.44999885559082px) translate(0px, 35px);}
23.33%{-webkit-transform: translate(22.417693257331848px, 22.44999885559082px) translate(-22.417693257331848px, -22.44999885559082px) translate(0px, -35px);transform: translate(22.417693257331848px, 22.44999885559082px) translate(-22.417693257331848px, -22.44999885559082px) translate(0px, -35px);}
63.33%{-webkit-transform: translate(22.417693257331848px, 22.44999885559082px) translate(-22.417693257331848px, -22.44999885559082px) translate(0px, 35px);transform: translate(22.417693257331848px, 22.44999885559082px) translate(-22.417693257331848px, -22.44999885559082px) translate(0px, 35px);}
100%{-webkit-transform: translate(22.417693257331848px, 22.44999885559082px) translate(-22.417693257331848px, -22.44999885559082px) translate(0px, 35px);transform: translate(22.417693257331848px, 22.44999885559082px) translate(-22.417693257331848px, -22.44999885559082px) translate(0px, 35px);}}
@keyframes kf_el_MTT8S1XrvQ_an_cg34sAbmT{
0%{-webkit-transform: translate(22.417693257331848px, 22.44999885559082px) translate(-22.417693257331848px, -22.44999885559082px) translate(0px, 35px);transform: translate(22.417693257331848px, 22.44999885559082px) translate(-22.417693257331848px, -22.44999885559082px) translate(0px, 35px);}
23.33%{-webkit-transform: translate(22.417693257331848px, 22.44999885559082px) translate(-22.417693257331848px, -22.44999885559082px) translate(0px, -35px);transform: translate(22.417693257331848px, 22.44999885559082px) translate(-22.417693257331848px, -22.44999885559082px) translate(0px, -35px);}
63.33%{-webkit-transform: translate(22.417693257331848px, 22.44999885559082px) translate(-22.417693257331848px, -22.44999885559082px) translate(0px, 35px);transform: translate(22.417693257331848px, 22.44999885559082px) translate(-22.417693257331848px, -22.44999885559082px) translate(0px, 35px);}
100%{-webkit-transform: translate(22.417693257331848px, 22.44999885559082px) translate(-22.417693257331848px, -22.44999885559082px) translate(0px, 35px);transform: translate(22.417693257331848px, 22.44999885559082px) translate(-22.417693257331848px, -22.44999885559082px) translate(0px, 35px);}}
#el_lpF5tAZVg *{-webkit-animation-duration: 1s;animation-duration: 1s;-webkit-animation-iteration-count: infinite;animation-iteration-count: infinite;-webkit-animation-timing-function: cubic-bezier(0, 0, 1, 1);animation-timing-function: cubic-bezier(0, 0, 1, 1);}
#el_MTT8S1XrvQ{fill: url(#SVGID_1_);stroke-width: 0;}
#el_MTT8S1XrvQ_an_d9rc3mO6N{-webkit-transform: translate(22.417693257331848px, 22.44999885559082px) scale(1, 1) translate(-22.417693257331848px, -22.44999885559082px);transform: translate(22.417693257331848px, 22.44999885559082px) scale(1, 1) translate(-22.417693257331848px, -22.44999885559082px);}
#el_MTT8S1XrvQ_an_cg34sAbmT{-webkit-animation-fill-mode: backwards;animation-fill-mode: backwards;-webkit-transform: translate(22.417693257331848px, 22.44999885559082px) translate(-22.417693257331848px, -22.44999885559082px) translate(0px, 35px);transform: translate(22.417693257331848px, 22.44999885559082px) translate(-22.417693257331848px, -22.44999885559082px) translate(0px, 35px);-webkit-animation-name: kf_el_MTT8S1XrvQ_an_cg34sAbmT;animation-name: kf_el_MTT8S1XrvQ_an_cg34sAbmT;-webkit-animation-timing-function: cubic-bezier(0.42, 0, 0.58, 1);animation-timing-function: cubic-bezier(0.42, 0, 0.58, 1);}
#el_MTT8S1XrvQ_an_Y8TOwbXQk{-webkit-animation-fill-mode: backwards;animation-fill-mode: backwards;-webkit-transform: translate(22.417693257331848px, 22.44999885559082px) rotate(0deg) translate(-22.417693257331848px, -22.44999885559082px);transform: translate(22.417693257331848px, 22.44999885559082px) rotate(0deg) translate(-22.417693257331848px, -22.44999885559082px);-webkit-animation-name: kf_el_MTT8S1XrvQ_an_Y8TOwbXQk;animation-name: kf_el_MTT8S1XrvQ_an_Y8TOwbXQk;-webkit-animation-timing-function: cubic-bezier(0.42, 0, 0.58, 1);animation-timing-function: cubic-bezier(0.42, 0, 0.58, 1);}</style>

<g id="el_1fAIop2-5R">

		<linearGradient id="SVGID_1_" gradientUnits="userSpaceOnUse" x1="8.9153" y1="777.9472" x2="36.5231" y2="750.3393" gradientTransform="matrix(1 0 0 1 0 -744)">
		<stop offset="0" style="stop-color:#2AC7D3"/>
		<stop offset="1" style="stop-color:#71AFE5"/>
	</linearGradient>
	<g id="el_MTT8S1XrvQ_an_cg34sAbmT" data-animator-group="true" data-animator-type="0"><g id="el_MTT8S1XrvQ_an_Y8TOwbXQk" data-animator-group="true" data-animator-type="1"><path d="M44.7,13.8c-0.3-1.2-1.5-1.9-2.7-1.6l-2.3,0.6C37.8,5.4,31.2,0,23.4,0C14.1,0,6.6,7.5,6.6,16.8&#10;&#9;&#9;c0,1.2,0.3,2.5,0.7,3.9L1.8,22c-1.2,0.3-1.9,1.5-1.7,2.7c0.2,1,1.2,1.8,2.2,1.8c0.2,0,0.3,0,0.5-0.1L9,24.9&#10;&#9;&#9;c3.9,8.3,11.5,17.7,12.6,19.2c0.4,0.5,1.1,0.8,1.8,0.8s1.3-0.3,1.8-0.8c1.5-1.9,14.5-18.2,15-26.8l2.9-0.7&#10;&#9;&#9;C44.3,16.2,45,15,44.7,13.8 M23.4,39c-1.6-2.1-3.7-5-5.7-7.9L31,27.9C28.5,32,25.6,36.1,23.4,39 M33.9,22.6L15.2,27&#10;&#9;&#9;c-0.6-1.1-1.2-2.1-1.7-3.1l10.6-2.5c1.2-0.3,1.9-1.5,1.7-2.7c-0.3-1.2-1.5-1.9-2.7-1.7l-11.4,2.7c-0.3-1.1-0.5-2.1-0.5-2.9&#10;&#9;&#9;c0-0.3,0-0.5,0-0.8l3.6-0.8c1.2-0.3,1.9-1.5,1.7-2.7c-0.3-1.2-1.5-1.9-2.7-1.7L12.6,11c2.1-3.8,6.1-6.5,10.8-6.5&#10;&#9;&#9;c5.7,0,10.5,3.9,11.9,9.3L32,14.6c-1.2,0.3-1.9,1.5-1.6,2.7c0.3,1,1.2,1.7,2.2,1.7c0.2,0,0.3,0,0.5-0.1l2.4-0.6&#10;&#9;&#9;C35.2,19.6,34.6,21.1,33.9,22.6" id="el_MTT8S1XrvQ"/></g></g>
</g>
</svg>