<?xml version="1.0" encoding="utf-8"?>
<!-- Generator: Adobe Illustrator 23.0.1, SVG Export Plug-In . SVG Version: 6.00 Build 0)  -->
<svg version="1.1" id="Layer_1" xmlns="http://www.w3.org/2000/svg" xmlns:xlink="http://www.w3.org/1999/xlink" x="0px" y="0px"
	 viewBox="0 0 222.5 46" style="enable-background:new 0 0 222.5 46;" xml:space="preserve">
<style type="text/css">
	.st0{fill:#FFFFFF;}
</style>
<g>
	<path class="st0" d="M44.7,13.8c-0.3-1.2-1.5-1.9-2.7-1.6l-2.3,0.6C37.8,5.4,31.2,0,23.4,0C14.1,0,6.6,7.5,6.6,16.8
		c0,1.2,0.3,2.5,0.7,3.9L1.8,22c-1.2,0.3-1.9,1.5-1.7,2.7c0.2,1,1.2,1.8,2.2,1.8c0.2,0,0.3,0,0.5-0.1L9,24.9
		c3.9,8.3,11.5,17.7,12.6,19.2c0.4,0.5,1.1,0.8,1.8,0.8s1.3-0.3,1.8-0.8c1.5-1.9,14.5-18.2,15-26.8l2.9-0.7
		C44.3,16.2,45,15,44.7,13.8 M23.4,39c-1.6-2.1-3.7-5-5.7-7.9L31,27.9C28.5,32,25.6,36.1,23.4,39 M33.9,22.6L15.2,27
		c-0.6-1.1-1.2-2.1-1.7-3.1l10.6-2.5c1.2-0.3,1.9-1.5,1.7-2.7c-0.3-1.2-1.5-1.9-2.7-1.7l-11.4,2.7c-0.3-1.1-0.5-2.1-0.5-2.9
		c0-0.3,0-0.5,0-0.8l3.6-0.8c1.2-0.3,1.9-1.5,1.7-2.7c-0.3-1.2-1.5-1.9-2.7-1.7L12.6,11c2.1-3.8,6.1-6.5,10.8-6.5
		c5.7,0,10.5,3.9,11.9,9.3L32,14.6c-1.2,0.3-1.9,1.5-1.6,2.7c0.3,1,1.2,1.7,2.2,1.7c0.2,0,0.3,0,0.5-0.1l2.4-0.6
		C35.2,19.6,34.6,21.1,33.9,22.6"/>
	<g>
		<path class="st0" d="M64.5,13.9h-11c-0.2,0-0.3,0.1-0.5,0.2c-0.1,0.1-0.2,0.3-0.2,0.5v16.6c0,0.2,0.1,0.3,0.2,0.4
			c0.1,0.1,0.3,0.2,0.4,0.2h2.3c0.2,0,0.3-0.1,0.5-0.2c0.1-0.1,0.2-0.3,0.2-0.4v-6.3H64c0.2,0,0.3-0.1,0.5-0.2
			c0.1-0.1,0.2-0.3,0.2-0.4v-1.8c0-0.2-0.1-0.3-0.2-0.4s-0.3-0.2-0.5-0.2h-7.6V17h8.1c0.2,0,0.3-0.1,0.5-0.2
			c0.1-0.1,0.2-0.3,0.2-0.4v-1.8c0-0.2-0.1-0.3-0.2-0.5C64.9,14,64.7,13.9,64.5,13.9z"/>
		<path class="st0" d="M81.9,13.9h-2.3c-0.2,0-0.3,0.1-0.5,0.2C79,14.2,79,14.4,79,14.6V25c0,1.3-0.3,2.3-1,3c-0.6,0.7-1.5,1-2.7,1
			s-2.1-0.3-2.7-1s-1-1.7-1-3V14.6c0-0.2-0.1-0.3-0.2-0.5c-0.1-0.1-0.3-0.2-0.5-0.2h-2.3c-0.2,0-0.3,0.1-0.5,0.2
			c-0.1,0.1-0.2,0.3-0.2,0.5V25c0,2.4,0.6,4.1,1.9,5.3c1.3,1.1,3.1,1.8,5.4,1.8s4.1-0.6,5.3-1.8c1.3-1.2,1.9-2.9,1.9-5.3V14.6
			c0-0.2,0-0.3-0.2-0.5C82.3,14,82.1,13.9,81.9,13.9z"/>
		<path class="st0" d="M98.5,13.9h-13c-0.2,0-0.3,0.1-0.5,0.2c-0.1,0.1-0.2,0.3-0.2,0.5v1.9c0,0.2,0.1,0.3,0.2,0.5
			c0.1,0.1,0.3,0.2,0.4,0.2h4.7v14c0,0.2,0.1,0.3,0.2,0.4s0.3,0.2,0.4,0.2h2.4c0.2,0,0.3-0.1,0.5-0.2c0.1-0.1,0.2-0.3,0.2-0.4v-14
			h4.7c0.2,0,0.3-0.1,0.5-0.2s0.2-0.3,0.2-0.5v-1.9c0-0.2-0.1-0.3-0.2-0.5C98.9,14,98.7,13.9,98.5,13.9z"/>
		<path class="st0" d="M113.6,15.5c-1.3-1.2-3.1-1.8-5.4-1.8s-4,0.6-5.4,1.8c-1.3,1.2-2,2.9-2.1,5.2c0,0.5,0,1.2,0,2.2s0,1.7,0,2.2
			c0.1,2.3,0.7,4,2,5.2c1.3,1.1,3.1,1.8,5.4,1.8s4.1-0.6,5.4-1.8c1.3-1.1,2-2.9,2.1-5.2c0-1,0-1.7,0-2.2s0-1.2,0-2.2
			C115.7,18.4,115,16.7,113.6,15.5z M112,24.9c0,1.4-0.4,2.4-1.1,3.1c-0.6,0.7-1.5,1-2.7,1c-1.1,0-2-0.3-2.7-1
			c-0.7-0.6-1-1.7-1.1-3.1c0-0.5,0-1.2,0-2.1s0-1.6,0-2.1c0-1.4,0.4-2.4,1.1-3.1s1.6-1,2.7-1s2,0.3,2.7,1c0.7,0.6,1.1,1.7,1.1,3.1
			c0,1,0,1.7,0,2.1C112.1,23.2,112.1,23.9,112,24.9z"/>
		<path class="st0" d="M132.9,13.9h-2.3c-0.2,0-0.3,0.1-0.5,0.2c-0.1,0.1-0.2,0.3-0.2,0.5V25c0,1.3-0.3,2.3-1,3
			c-0.6,0.7-1.5,1-2.7,1s-2.1-0.3-2.7-1s-1-1.7-1-3V14.6c0-0.2-0.1-0.3-0.2-0.5c-0.1-0.1-0.3-0.2-0.5-0.2h-2.3
			c-0.2,0-0.3,0.1-0.5,0.2c-0.1,0.1-0.2,0.3-0.2,0.5V25c0,2.4,0.6,4.1,1.9,5.3c1.3,1.1,3.1,1.8,5.4,1.8s4.1-0.6,5.3-1.8
			c1.3-1.2,1.9-2.9,1.9-5.3V14.6c0-0.2,0-0.3-0.2-0.5C133.2,14,133.1,13.9,132.9,13.9z"/>
		<path class="st0" d="M147.7,24.4c1.1-0.4,1.9-1,2.5-1.8s0.9-1.9,0.9-3.1c0-1.8-0.6-3.2-1.8-4.1c-1.2-1-2.8-1.5-4.9-1.5h-6.6
			c-0.2,0-0.3,0.1-0.5,0.2c-0.1,0.1-0.2,0.3-0.2,0.5v16.6c0,0.2,0.1,0.3,0.2,0.4c0.1,0.1,0.3,0.2,0.4,0.2h2.3c0.2,0,0.3-0.1,0.5-0.2
			c0.1-0.1,0.2-0.3,0.2-0.4V25h3.5l3.2,6c0.1,0.2,0.3,0.4,0.4,0.5c0.2,0.1,0.4,0.2,0.6,0.2h2.3c0.2,0,0.3,0,0.4-0.2
			c0.1-0.1,0.2-0.2,0.2-0.4c0-0.1,0-0.2-0.1-0.3L147.7,24.4z M146.7,21.4c-0.5,0.5-1.3,0.7-2.3,0.7h-3.5v-5.4h3.5
			c1,0,1.8,0.2,2.3,0.7s0.8,1.1,0.8,2C147.4,20.3,147.2,21,146.7,21.4z"/>
		<path class="st0" d="M157.4,13.9H155c-0.2,0-0.3,0-0.4,0.2c-0.1,0.1-0.2,0.3-0.2,0.5v16.6c0,0.2,0.1,0.3,0.2,0.4
			c0.1,0.1,0.3,0.2,0.4,0.2h2.4c0.2,0,0.3-0.1,0.5-0.2c0.1-0.1,0.2-0.3,0.2-0.4V14.5c0-0.2,0-0.3-0.2-0.5
			C157.8,14,157.6,13.9,157.4,13.9z"/>
		<path class="st0" d="M172.8,22.5c-0.9-0.4-2.1-0.8-3.6-1.1c-1.1-0.3-1.9-0.5-2.5-0.8s-1-0.5-1.3-0.8s-0.4-0.7-0.4-1.1
			c0-0.7,0.3-1.2,0.8-1.6c0.5-0.3,1.3-0.5,2.2-0.5c0.8,0,1.6,0.2,2.1,0.5c0.6,0.4,0.9,0.8,1,1.4c0.2,0.3,0.4,0.5,0.8,0.5h2.4
			c0.2,0,0.3,0,0.4-0.2s0.2-0.2,0.2-0.4c0-0.8-0.3-1.5-0.8-2.2c-0.5-0.7-1.3-1.3-2.3-1.8s-2.2-0.7-3.6-0.7c-1.3,0-2.5,0.2-3.5,0.6
			c-1,0.5-1.8,1.1-2.3,1.8c-0.5,0.8-0.8,1.6-0.8,2.6c0,1.5,0.5,2.6,1.4,3.4s2.4,1.4,4.4,1.9c1.2,0.3,2.1,0.6,2.8,0.8
			c0.6,0.2,1.1,0.5,1.4,0.8c0.3,0.3,0.5,0.7,0.5,1.1c0,0.7-0.3,1.3-0.9,1.6c-0.6,0.4-1.5,0.6-2.7,0.6c-1.1,0-1.9-0.2-2.5-0.6
			s-1-0.9-1.1-1.5c-0.1-0.2-0.2-0.3-0.3-0.3c-0.1-0.1-0.3-0.1-0.5-0.1h-2.3c-0.2,0-0.3,0-0.4,0.2c-0.1,0.1-0.2,0.2-0.2,0.4
			c0,0.9,0.3,1.7,0.9,2.4c0.6,0.7,1.4,1.3,2.5,1.8s2.4,0.7,3.9,0.6c1.4,0,2.7-0.2,3.8-0.6s1.9-1,2.6-1.8c0.6-0.8,0.9-1.8,0.9-2.9
			c0-1-0.2-1.8-0.6-2.5C174.3,23.5,173.7,22.9,172.8,22.5z"/>
		<path class="st0" d="M190.8,14.1c-0.1-0.1-0.3-0.2-0.5-0.2h-13c-0.2,0-0.3,0.1-0.5,0.2c-0.1,0.1-0.2,0.3-0.2,0.5v1.9
			c0,0.2,0.1,0.3,0.2,0.5c0.1,0.1,0.3,0.2,0.4,0.2h4.7v14c0,0.2,0.1,0.3,0.2,0.4c0.1,0.1,0.3,0.2,0.4,0.2h2.4c0.2,0,0.3-0.1,0.5-0.2
			c0.1-0.1,0.2-0.3,0.2-0.4v-14h4.7c0.2,0,0.3-0.1,0.5-0.2s0.2-0.3,0.2-0.5v-1.9C191,14.3,190.9,14.2,190.8,14.1z"/>
	</g>
</g>
</svg>
