<?xml version="1.0" encoding="UTF-8"?>
<svg width="159px" height="188px" viewBox="0 0 159 188" version="1.1" xmlns="http://www.w3.org/2000/svg" xmlns:xlink="http://www.w3.org/1999/xlink">
    <!-- Generator: Sketch 51.2 (57519) - http://www.bohemiancoding.com/sketch -->
    <title>Group</title>
    <desc>Created with Sketch.</desc>
    <defs>
        <path d="M58.5,147 C68.0707072,147 117,90.8086579 117,58.5 C117,26.1913421 90.8086579,0 58.5,0 C26.1913421,0 0,26.1913421 0,58.5 C0,90.8086579 48.9292928,147 58.5,147 Z" id="path-1"></path>
        <filter x="-27.8%" y="-20.7%" width="155.6%" height="144.2%" filterUnits="objectBoundingBox" id="filter-2">
            <feOffset dx="0" dy="2" in="SourceAlpha" result="shadowOffsetOuter1"></feOffset>
            <feGaussianBlur stdDeviation="10.5" in="shadowOffsetOuter1" result="shadowBlurOuter1"></feGaussianBlur>
            <feColorMatrix values="0 0 0 0 0   0 0 0 0 0   0 0 0 0 0  0 0 0 0.0764549366 0" type="matrix" in="shadowBlurOuter1"></feColorMatrix>
        </filter>
        <path d="M46.4542512,0 C27.9407781,0 13.0089524,14.8663697 13.0089524,33.3006682 C13.0089524,35.6792873 13.6062254,38.2561247 14.4005985,41.0311804 L3.45059298,43.6080178 C1.06349177,44.2026726 -0.332136211,46.5812918 0.0680367194,48.9599109 C0.46621874,50.9420935 2.45712884,52.5278396 4.44803894,52.5278396 C4.84622096,52.5278396 5.04531197,52.5278396 5.44150308,52.3316036 L17.7871366,49.3563474 C25.551686,65.8084633 40.6826028,84.44098 42.8726039,87.4142539 C43.6689679,88.403363 45.062605,89 46.4542512,89 C47.8498791,89 49.0444252,88.403363 50.0398802,87.4142539 C53.0262454,83.6481069 78.9080767,51.3385301 79.9035318,34.2917595 L85.677171,32.9042316 C87.672063,32.2421826 88.9741182,30.4740757 89,28.5216258 L89,28.4046771 C88.9960182,28.0577951 88.9502272,27.7049666 88.8626272,27.3541203 C88.2653542,24.9755011 85.8762621,23.5879733 83.4871699,24.1826281 L78.9080767,25.3719376 C75.1233566,10.7037862 61.9853408,0 46.4542512,0 Z M46.4542512,8.91982183 C57.8044296,8.91982183 67.3607981,16.6503341 70.1480723,27.3541203 L63.5780689,28.9398664 C61.1889768,29.5345212 59.7953397,31.9131403 60.3926128,34.2917595 C60.9898858,36.2739421 62.7817049,37.6614699 64.772615,37.6614699 C65.170797,37.6614699 65.369888,37.6614699 65.76807,37.4632517 L70.5462543,36.2739421 C69.9489812,38.8507795 68.7544352,41.8240535 67.3607981,44.7973274 L30.1307792,53.518931 C28.9362332,51.3385301 27.7416871,49.3563474 26.7462321,47.3741648 L47.8498791,42.4187082 C50.2369803,41.8240535 51.6326083,39.4454343 51.2344263,37.0668151 C50.6371533,34.688196 48.2460702,33.3006682 45.858969,33.6971047 L23.1625939,39.0489978 C22.5653209,36.8685969 22.1671388,34.8864143 22.1671388,33.3006682 L22.1671388,31.714922 L29.3344152,30.1291759 C31.7235073,29.5345212 33.1171444,27.1578842 32.7189624,24.7772829 C32.1216893,22.3966815 29.7325972,21.0111359 27.3435051,21.4075724 L24.954413,21.8040089 C29.1353242,14.2717149 37.1009555,8.91982183 46.4542512,8.91982183 Z M35.1080545,61.6438976 L61.5871588,55.3048775 C56.6098836,63.4298441 50.8362443,71.5567929 46.4542512,77.3051225 C43.2707859,73.1445212 39.0898747,67.3942094 35.1080545,61.6438976 Z" id="path-3"></path>
        <linearGradient x1="19.7958965%" y1="75.6062768%" x2="81.5539309%" y2="14.1187477%" id="linearGradient-5">
            <stop stop-color="#2AC6D3" offset="0%"></stop>
            <stop stop-color="#70AFE4" offset="100%"></stop>
        </linearGradient>
    </defs>
    <g id="Page-1" stroke="none" stroke-width="1" fill="none" fill-rule="evenodd">
        <g id="Artboard" transform="translate(-46.000000, -33.000000)">
            <g id="Group" transform="translate(67.000000, 52.000000)">
                <g id="Oval" fill-rule="nonzero">
                    <use fill="black" fill-opacity="1" filter="url(#filter-2)" xlink:href="#path-1"></use>
                    <use fill="#FFFFFF" xlink:href="#path-1"></use>
                </g>
                <g id="Group-3" transform="translate(14.000000, 26.000000)">
                    <mask id="mask-4" fill="white">
                        <use xlink:href="#path-3"></use>
                    </mask>
                    <g id="Clip-2"></g>
                    <path d="M46.4542512,0 C27.9407781,0 13.0089524,14.8663697 13.0089524,33.3006682 C13.0089524,35.6792873 13.6062254,38.2561247 14.4005985,41.0311804 L3.45059298,43.6080178 C1.06349177,44.2026726 -0.332136211,46.5812918 0.0680367194,48.9599109 C0.46621874,50.9420935 2.45712884,52.5278396 4.44803894,52.5278396 C4.84622096,52.5278396 5.04531197,52.5278396 5.44150308,52.3316036 L17.7871366,49.3563474 C25.551686,65.8084633 40.6826028,84.44098 42.8726039,87.4142539 C43.6689679,88.403363 45.062605,89 46.4542512,89 C47.8498791,89 49.0444252,88.403363 50.0398802,87.4142539 C53.0262454,83.6481069 78.9080767,51.3385301 79.9035318,34.2917595 L85.677171,32.9042316 C87.672063,32.2421826 88.9741182,30.4740757 89,28.5216258 L89,28.4046771 C88.9960182,28.0577951 88.9502272,27.7049666 88.8626272,27.3541203 C88.2653542,24.9755011 85.8762621,23.5879733 83.4871699,24.1826281 L78.9080767,25.3719376 C75.1233566,10.7037862 61.9853408,0 46.4542512,0 Z M46.4542512,8.91982183 C57.8044296,8.91982183 67.3607981,16.6503341 70.1480723,27.3541203 L63.5780689,28.9398664 C61.1889768,29.5345212 59.7953397,31.9131403 60.3926128,34.2917595 C60.9898858,36.2739421 62.7817049,37.6614699 64.772615,37.6614699 C65.170797,37.6614699 65.369888,37.6614699 65.76807,37.4632517 L70.5462543,36.2739421 C69.9489812,38.8507795 68.7544352,41.8240535 67.3607981,44.7973274 L30.1307792,53.518931 C28.9362332,51.3385301 27.7416871,49.3563474 26.7462321,47.3741648 L47.8498791,42.4187082 C50.2369803,41.8240535 51.6326083,39.4454343 51.2344263,37.0668151 C50.6371533,34.688196 48.2460702,33.3006682 45.858969,33.6971047 L23.1625939,39.0489978 C22.5653209,36.8685969 22.1671388,34.8864143 22.1671388,33.3006682 L22.1671388,31.714922 L29.3344152,30.1291759 C31.7235073,29.5345212 33.1171444,27.1578842 32.7189624,24.7772829 C32.1216893,22.3966815 29.7325972,21.0111359 27.3435051,21.4075724 L24.954413,21.8040089 C29.1353242,14.2717149 37.1009555,8.91982183 46.4542512,8.91982183 Z M35.1080545,61.6438976 L61.5871588,55.3048775 C56.6098836,63.4298441 50.8362443,71.5567929 46.4542512,77.3051225 C43.2707859,73.1445212 39.0898747,67.3942094 35.1080545,61.6438976 Z" id="Fill-1" fill="url(#linearGradient-5)" mask="url(#mask-4)"></path>
                </g>
            </g>
        </g>
    </g>
</svg>