<?xml version="1.0" encoding="UTF-8"?>
<svg width="42px" height="33px" viewBox="0 0 42 33" version="1.1" xmlns="http://www.w3.org/2000/svg" xmlns:xlink="http://www.w3.org/1999/xlink">
    <!-- Generator: Sketch 52.2 (67145) - http://www.bohemiancoding.com/sketch -->
    <title>Group 18</title>
    <desc>Created with Sketch.</desc>
    <defs>
        <polygon id="path-1" points="26 0 29 0 29 6 26 6"></polygon>
        <polygon id="path-3" points="37 13 42 13 42 16 37 16"></polygon>
    </defs>
    <g id="Symbols" stroke="none" stroke-width="1" fill="none" fill-rule="evenodd">
        <g id="night" transform="translate(0.000000, -1.000000)">
            <g id="Group-18" transform="translate(0.000000, 1.000000)">
                <g id="Group-17">
                    <path d="M24.8954393,29.2488939 L8.10456075,29.2488939 C5.19213588,29.2488939 3.88181768,27.324964 3.88181768,25.496615 C3.88181768,23.2454822 5.58037832,21.7425769 8.10456075,21.7425769 C9.1230905,21.7425769 9.99784923,20.9456794 10.0451663,19.9148142 C10.0451663,19.9148142 10.0949098,18.4599925 10.8695748,17.0995789 C11.7443335,15.502852 13.248773,14.7059545 15.3361827,14.7059545 C17.471516,14.7059545 18.9759554,15.502852 19.8980312,17.0995789 C20.6726962,18.4599925 20.7697568,19.9148142 20.7697568,19.9148142 C20.8195004,20.8999414 21.6942591,21.6968389 22.7133955,21.6968389 L24.8954393,21.6968389 C27.4190151,21.6968389 29.1181823,23.1973986 29.1181823,25.4485314 C29.1181823,27.2786396 27.8078641,29.2488939 24.8954393,29.2488939 M24.8954393,17.9908844 L24.3622125,17.9908844 C24.1680913,17.2391385 23.8769095,16.396503 23.3909998,15.502852 C21.7888932,12.5961405 18.9262119,11 15.3841063,11 C11.7940771,11 8.92896928,12.5961405 7.37660619,15.502852 C6.89130315,16.4422411 6.5995147,17.3816302 6.40539348,18.1304441 C2.62063641,18.7877819 0,21.6968389 0,25.496615 C0,29.2969775 2.81536425,32.2975105 6.6965753,32.9061784 C6.89130315,32.954262 7.13516793,33 7.32686263,33 L24.8954393,33 C29.5070314,33 33,29.7643265 33,25.496615 C33,21.1333227 29.604092,17.9908844 24.8954393,17.9908844" id="Fill-1" fill="#FFFFFF"></path>
                    <path d="M35,15.6700651 C35,11.440955 31.7192425,8 27.6912078,8 C26.238234,8 24.7858458,8.44141606 23.614565,9.32793688 C22.9580621,9.76996772 22.8186797,10.703827 23.2391695,11.3930017 C23.6602449,12.0797172 24.5527609,12.2291101 25.2063356,11.7870793 C25.9571266,11.2442236 26.8473,10.9995389 27.7368877,10.9995389 C30.2211743,10.9995389 32.2340204,13.112557 32.2340204,15.7204775 C32.2340204,16.5086326 32.0466155,17.2457605 31.7192425,17.8851376 C31.3444326,18.6222655 31.62554,19.5075567 32.3283085,19.8518367 C32.5157134,19.9495876 32.7517265,20 32.9848114,20 C33.4990037,20 33.9681016,19.7049029 34.2497946,19.2130744 C34.7188926,18.1292074 35,16.8996363 35,15.6700651" id="Fill-3" fill="#FFFFFF"></path>
                    <mask id="mask-2" fill="white">
                        <use xlink:href="#path-1"></use>
                    </mask>
                    <g id="Clip-6"></g>
                    <path d="M27.5009377,6 C28.3504897,6 29,5.33162448 29,4.46074976 L29,1.53925024 C29,0.668375521 28.3504897,0 27.5009377,0 C26.6520108,0 26,0.668375521 26,1.53925024 L26,4.46074976 C26,5.33162448 26.7001459,6 27.5009377,6" id="Fill-5" fill="#FFFFFF" mask="url(#mask-2)"></path>
                    <mask id="mask-4" fill="white">
                        <use xlink:href="#path-3"></use>
                    </mask>
                    <g id="Clip-9"></g>
                    <path d="M40.7584494,13 L38.2830734,13 C37.5547704,13 37,13.6492397 37,14.497813 C37,15.3507603 37.5547704,16 38.2830734,16 L40.7168015,16 C41.4429688,16 41.9977392,15.3507603 41.9977392,14.497813 C42.0415228,13.6492397 41.4429688,13 40.7584494,13" id="Fill-8" fill="#FFFFFF" mask="url(#mask-4)"></path>
                    <path d="M36.2000375,7 C36.5205475,7 36.7995562,6.87902646 37.0400638,6.63907895 L38.6396137,5.03992877 C39.1201288,4.55953385 39.1201288,3.79970007 38.6396137,3.36029619 C38.1590987,2.87990127 37.399575,2.87990127 36.9600613,3.36029619 L35.3600113,4.95944637 C34.8799962,5.43984128 34.8799962,6.19967507 35.3600113,6.63907895 C35.6005188,6.87902646 35.8800275,7 36.2000375,7" id="Fill-11" fill="#FFFFFF" mask="url(#mask-4)"></path>
                    <path d="M37.0398187,22.3604764 C36.5592436,21.8798412 35.7996249,21.8798412 35.3600563,22.3604764 C34.8799812,22.839111 34.8799812,23.5988247 35.3600563,24.0399487 L36.9598062,25.6403989 C37.1998437,25.8809665 37.5203938,26 37.7999375,26 C38.1199875,26 38.4000313,25.8809665 38.6395687,25.6403989 C39.1201438,25.1597637 39.1201438,24.40005 38.6395687,23.9604264 L37.0398187,22.3604764 Z" id="Fill-13" fill="#FFFFFF" mask="url(#mask-4)"></path>
                    <path d="M18.9589872,6.63907895 C19.1995624,6.87902646 19.5196624,7 19.8012504,7 C20.1193498,7 20.4009378,6.87902646 20.6410128,6.63907895 C21.1196624,6.1606836 21.1196624,5.39885025 20.6410128,4.95944637 L19.0390122,3.36029619 C18.5603626,2.87990127 17.8006252,2.87990127 17.3589872,3.36029619 C16.8803376,3.8406911 16.8803376,4.60052489 17.3589872,5.03992877 L18.9589872,6.63907895 Z" id="Fill-15" fill="#FFFFFF" mask="url(#mask-4)"></path>
                </g>
            </g>
        </g>
    </g>
</svg>