<?xml version="1.0" encoding="UTF-8"?>
<svg width="42px" height="35px" viewBox="0 0 42 35" version="1.1" xmlns="http://www.w3.org/2000/svg" xmlns:xlink="http://www.w3.org/1999/xlink">
    <!-- Generator: Sketch 52.2 (67145) - http://www.bohemiancoding.com/sketch -->
    <title>night</title>
    <desc>Created with Sketch.</desc>
    <g id="night" stroke="none" stroke-width="1" fill="none" fill-rule="evenodd">
        <g id="Group" transform="translate(7.000000, 5.000000)" fill="#FFFFFF">
            <path d="M14.3769184,24.8571429 C10.7478944,24.8571429 7.38227619,22.8080294 5.56831754,19.5020877 C2.7776545,14.4718635 4.37303057,7.9979458 9.10935518,4.97142857 C7.55935574,8.78906658 7.73643529,13.214453 9.77285012,16.9389495 C11.7655484,20.572633 15.3065861,23.0403011 19.2903226,23.5519973 C17.7856998,24.3908531 16.1039974,24.8571429 14.3769184,24.8571429 M23.597163,19.7899181 C22.6457125,20.116637 21.6500876,20.2557409 20.6527636,20.2557409 C17.2547261,20.2557409 14.1285316,18.3860206 12.4516001,15.3952865 C10.2326817,11.4203044 11.0493433,6.32197064 14.3567665,3.23772124 C14.9451933,2.72163402 15.126422,1.83382375 14.8081391,1.13304394 C14.4915553,0.383753108 13.7660743,-0.0820696652 12.9958525,0.0120300417 C10.8681147,0.151133956 8.8281595,0.806325083 6.96999935,1.92733898 C0.31097858,5.95024757 -2.00081958,14.8336106 1.89729574,21.7537381 C4.38805721,26.1939584 9.05356266,29 14.0379173,29 C16.4850706,29 18.9316576,28.3448089 21.0616607,27.0367645 C22.9181219,25.9157506 24.4596982,24.46568 25.6829917,22.5936218 C26.1343643,21.9407686 26.0901899,21.0529583 25.6365519,20.3971827 C25.1393057,19.7899181 24.322644,19.5549611 23.597163,19.7899181" id="Fill-1"></path>
            <g id="Group-9" transform="translate(19.000000, 1.000000)">
                <path d="M1.66163234,12.5 C2.10038139,12.5 2.53852021,12.3088154 2.88207475,12.0220385 C3.22318841,11.7346642 3.36842105,11.3050963 3.36842105,10.8271348 C3.36842105,10.3975669 3.17315027,9.96799898 2.88207475,9.63223103 C2.24561404,9.01147854 1.12280702,9.01147854 0.488787185,9.63223103 C0.148283753,9.91900793 0,10.3975669 0,10.8271348 C0,11.258495 0.195881007,11.6880629 0.488787185,12.0220385 C0.782303585,12.3088154 1.22044241,12.5 1.66163234,12.5" id="Fill-3"></path>
                <path d="M8.00116959,0 C7.43918129,0 6.9251462,0.232541996 6.50233918,0.603336573 C6.13040936,0.971238836 5.89473684,1.52714147 5.89473684,2.0830441 C5.89473684,2.63894674 6.13040936,3.14741543 6.50233918,3.56333009 C6.87719298,3.93354621 7.43918129,4.16666667 8.00116959,4.16666667 C8.56315789,4.16666667 9.07719298,3.93354621 9.49766082,3.56333009 C9.87192982,3.19253552 10.1052632,2.63894674 10.1052632,2.0830441 C10.1052632,1.52714147 9.87192982,1.01867278 9.49766082,0.603336573 C9.07719298,0.232541996 8.56315789,0 8.00116959,0" id="Fill-5"></path>
                <path d="M15.4961583,12.1672657 C15.2002764,11.8745116 14.7375002,11.6666667 14.3157895,11.6666667 C13.8940787,11.6666667 13.4313025,11.8333594 13.1375265,12.1672657 C12.8411181,12.4584571 12.6315789,12.9163411 12.6315789,13.3330729 C12.6315789,13.7503256 12.8000526,14.2082096 13.1375265,14.5014846 C13.4744739,14.7926759 13.8940787,15 14.3157895,15 C14.7375002,15 15.2002764,14.8327864 15.4961583,14.5014846 C15.8315263,14.1675783 16,13.7503256 16,13.3330729 C16,12.9163411 15.8315263,12.4584571 15.4961583,12.1672657" id="Fill-7"></path>
            </g>
        </g>
    </g>
</svg>