<?xml version="1.0" encoding="UTF-8"?>
<svg width="36px" height="30px" viewBox="0 0 36 30" version="1.1" xmlns="http://www.w3.org/2000/svg" xmlns:xlink="http://www.w3.org/1999/xlink">
    <!-- Generator: Sketch 52.2 (67145) - http://www.bohemiancoding.com/sketch -->
    <title>Group 2</title>
    <desc>Created with Sketch.</desc>
    <defs>
        <polygon id="path-1" points="0.0525149562 0.227506849 2.83650319 0.227506849 2.83650319 5.87305205 0.0525149562 5.87305205"></polygon>
    </defs>
    <g id="Symbols" stroke="none" stroke-width="1" fill="none" fill-rule="evenodd">
        <g id="night" transform="translate(0.000000, -3.000000)">
            <g id="Group-2" transform="translate(0.000000, 3.000000)">
                <g id="Group">
                    <g id="Group-3" transform="translate(17.000000, 0.000000)">
                        <mask id="mask-2" fill="white">
                            <use xlink:href="#path-1"></use>
                        </mask>
                        <g id="Clip-2"></g>
                        <path d="M1.4432049,5.87305205 C2.20919292,5.87305205 2.83650319,5.24313425 2.83650319,4.47075068 L2.83650319,1.62976438 C2.83650319,0.859572603 2.20919292,0.227463014 1.4432049,0.227463014 C0.679390509,0.227463014 0.0525149562,0.859572603 0.0525149562,1.62976438 L0.0525149562,4.47075068 C0.0525149562,5.24313425 0.679390509,5.87305205 1.4432049,5.87305205" id="Fill-1" fill="#9BACB8" mask="url(#mask-2)"></path>
                    </g>
                    <path d="M30,16.5 C30,17.3243201 30.6713254,18 31.4903331,18 L34.5101328,18 C35.3300722,18 36,17.3243201 36,16.5 C36,15.6738043 35.3300722,15 34.5101328,15 L31.4903331,15 C30.6331237,15 30,15.6738043 30,16.5" id="Fill-4" fill="#9BACB8"></path>
                    <path d="M1.49173329,18 L4.51012963,18 C5.32888302,18 6,17.3243201 6,16.5 C6,15.6738043 5.32888302,15 4.51012963,15 L1.49173329,15 C0.671582706,15 0,15.6738043 0,16.5 C0,17.3243201 0.671582706,18 1.49173329,18" id="Fill-6" fill="#9BACB8"></path>
                    <path d="M26.4741399,9 C26.8343827,9 27.1946256,8.8560957 27.4824601,8.56963619 L29.567911,6.48257409 C30.1440297,5.90650717 30.1440297,5.00710527 29.567911,4.43103836 C28.9935912,3.85632055 28.0941084,3.85632055 27.5179897,4.43103836 L25.4307398,6.51765076 C24.8564201,7.09416738 24.8564201,7.99356928 25.4307398,8.56963619 C25.7559029,8.8560957 26.113897,9 26.4741399,9" id="Fill-8" fill="#9BACB8"></path>
                    <path d="M8.55344498,8.56963619 C8.84163201,8.8560957 9.2017534,9 9.56187479,9 C9.91974823,9 10.2798696,8.8560957 10.5680566,8.56963619 C11.1439811,7.99356928 11.1439811,7.09416738 10.5680566,6.51810046 L8.48151062,4.43103836 C7.90738451,3.85632055 7.00820501,3.85632055 6.43228054,4.43103836 C5.85590649,5.00710527 5.85590649,5.90650717 6.43228054,6.48257409 L8.55344498,8.56963619 Z" id="Fill-10" fill="#9BACB8"></path>
                    <path d="M8.90741214,22.9232381 C9.31821927,23.8203526 10.408023,24.2234365 11.3182761,23.8203526 C12.2256882,23.4167072 12.6364954,22.3376998 12.2256882,21.4405854 C11.8643143,20.6316105 11.6353305,19.7322505 11.6353305,18.8356974 C11.6353305,15.3774842 14.4984801,12.5485984 17.9985795,12.5485984 C21.4998153,12.5485984 24.3652376,15.3774842 24.3652376,18.8356974 C24.3652376,19.7322505 24.1822779,20.6316105 23.7726072,21.4405854 C23.3635046,22.3376998 23.7726072,23.4167072 24.6817239,23.8203526 C24.9090031,23.9107377 25.1811699,24 25.4550413,24 C26.1357425,24 26.8192846,23.5963547 27.0897469,22.9670272 C27.6823773,21.6651447 28,20.2717542 28,18.8800479 C28,13.4451514 23.4987358,9 17.9985795,9 C12.4989914,9 8,13.4451514 8,18.8800479 C8,20.2717542 8.31705446,21.6207942 8.90741214,22.9232381" id="Fill-12" fill="#9BACB8"></path>
                    <path d="M2.49920154,26 C1.67494493,26 1,26.9003436 1,28.0012496 C1,29.0996564 1.67494493,30 2.49920154,30 L33.5031388,30 C34.3273954,30 35,29.0996564 35,28.0012496 C35,26.9003436 34.3273954,26 33.5031388,26 L2.49920154,26 Z" id="Fill-14" fill="#9BACB8"></path>
                </g>
            </g>
        </g>
    </g>
</svg>